<mxfile host="app.diagrams.net" modified="2024-02-14T15:25:57.760Z" agent="Mozilla/5.0 (Windows NT 10.0; Win64; x64) AppleWebKit/537.36 (KHTML, like Gecko) Chrome/121.0.0.0 Safari/537.36" etag="zX53MvNtYa03yt_NBoHj" version="21.6.5" type="device">
  <diagram name="Page-1" id="_3U_WGH3aohRvPWbRYDJ">
    <mxGraphModel dx="1430" dy="768" grid="1" gridSize="10" guides="1" tooltips="1" connect="1" arrows="1" fold="1" page="1" pageScale="1" pageWidth="850" pageHeight="1100" math="0" shadow="0">
      <root>
        <mxCell id="0" />
        <mxCell id="1" parent="0" />
        <mxCell id="4ghWdcjFNyHcXNx8mhB--1" value="" style="rounded=0;whiteSpace=wrap;html=1;" vertex="1" parent="1">
          <mxGeometry x="90" y="80" width="290" height="230" as="geometry" />
        </mxCell>
        <mxCell id="4ghWdcjFNyHcXNx8mhB--2" value="Blockchain" style="text;html=1;align=center;verticalAlign=middle;resizable=0;points=[];autosize=1;strokeColor=none;fillColor=none;" vertex="1" parent="1">
          <mxGeometry y="170" width="80" height="30" as="geometry" />
        </mxCell>
        <mxCell id="4ghWdcjFNyHcXNx8mhB--3" value="" style="rounded=0;whiteSpace=wrap;html=1;" vertex="1" parent="1">
          <mxGeometry x="90" y="390" width="290" height="220" as="geometry" />
        </mxCell>
        <mxCell id="4ghWdcjFNyHcXNx8mhB--4" value="File Server" style="text;html=1;align=center;verticalAlign=middle;resizable=0;points=[];autosize=1;strokeColor=none;fillColor=none;" vertex="1" parent="1">
          <mxGeometry y="480" width="80" height="30" as="geometry" />
        </mxCell>
        <mxCell id="4ghWdcjFNyHcXNx8mhB--18" style="edgeStyle=orthogonalEdgeStyle;rounded=0;orthogonalLoop=1;jettySize=auto;html=1;exitX=1;exitY=0.5;exitDx=0;exitDy=0;entryX=0;entryY=0.5;entryDx=0;entryDy=0;" edge="1" parent="1" source="4ghWdcjFNyHcXNx8mhB--5" target="4ghWdcjFNyHcXNx8mhB--17">
          <mxGeometry relative="1" as="geometry" />
        </mxCell>
        <mxCell id="4ghWdcjFNyHcXNx8mhB--5" value="IHM Part I" style="rounded=0;whiteSpace=wrap;html=1;" vertex="1" parent="1">
          <mxGeometry x="100" y="470" width="90" height="60" as="geometry" />
        </mxCell>
        <mxCell id="4ghWdcjFNyHcXNx8mhB--7" value="" style="endArrow=classic;html=1;rounded=0;exitX=0.459;exitY=0.036;exitDx=0;exitDy=0;exitPerimeter=0;entryX=0.5;entryY=1;entryDx=0;entryDy=0;" edge="1" parent="1" source="4ghWdcjFNyHcXNx8mhB--5" target="4ghWdcjFNyHcXNx8mhB--8">
          <mxGeometry width="50" height="50" relative="1" as="geometry">
            <mxPoint x="280" y="410" as="sourcePoint" />
            <mxPoint x="330" y="360" as="targetPoint" />
          </mxGeometry>
        </mxCell>
        <mxCell id="4ghWdcjFNyHcXNx8mhB--8" value="Hash(IHM I)" style="rounded=0;whiteSpace=wrap;html=1;" vertex="1" parent="1">
          <mxGeometry x="200" y="150" width="80" height="70" as="geometry" />
        </mxCell>
        <mxCell id="4ghWdcjFNyHcXNx8mhB--9" value="File to Hash" style="ellipse;whiteSpace=wrap;html=1;" vertex="1" parent="1">
          <mxGeometry x="140" y="330" width="95" height="30" as="geometry" />
        </mxCell>
        <mxCell id="4ghWdcjFNyHcXNx8mhB--11" value="Bad Actor" style="shape=umlActor;verticalLabelPosition=bottom;verticalAlign=top;html=1;outlineConnect=0;" vertex="1" parent="1">
          <mxGeometry x="220" y="470" width="30" height="60" as="geometry" />
        </mxCell>
        <mxCell id="4ghWdcjFNyHcXNx8mhB--17" value="IHM Part I&lt;br&gt;(Tampered)" style="rounded=0;whiteSpace=wrap;html=1;" vertex="1" parent="1">
          <mxGeometry x="280" y="470" width="90" height="60" as="geometry" />
        </mxCell>
        <mxCell id="4ghWdcjFNyHcXNx8mhB--19" value="" style="rounded=0;whiteSpace=wrap;html=1;" vertex="1" parent="1">
          <mxGeometry x="480" y="210" width="260" height="210" as="geometry" />
        </mxCell>
        <mxCell id="4ghWdcjFNyHcXNx8mhB--20" value="Automated Security Program" style="text;html=1;align=center;verticalAlign=middle;resizable=0;points=[];autosize=1;strokeColor=none;fillColor=none;" vertex="1" parent="1">
          <mxGeometry x="470" y="180" width="180" height="30" as="geometry" />
        </mxCell>
        <mxCell id="4ghWdcjFNyHcXNx8mhB--23" value="" style="endArrow=classic;html=1;rounded=0;exitX=1;exitY=0.5;exitDx=0;exitDy=0;entryX=0;entryY=0.5;entryDx=0;entryDy=0;" edge="1" parent="1" source="4ghWdcjFNyHcXNx8mhB--8" target="4ghWdcjFNyHcXNx8mhB--24">
          <mxGeometry width="50" height="50" relative="1" as="geometry">
            <mxPoint x="330" y="410" as="sourcePoint" />
            <mxPoint x="440" y="280" as="targetPoint" />
          </mxGeometry>
        </mxCell>
        <mxCell id="4ghWdcjFNyHcXNx8mhB--24" value="Mine Blockchain" style="rounded=0;whiteSpace=wrap;html=1;" vertex="1" parent="1">
          <mxGeometry x="480" y="250" width="60" height="60" as="geometry" />
        </mxCell>
        <mxCell id="4ghWdcjFNyHcXNx8mhB--25" value="Retrieve Hash" style="rounded=0;whiteSpace=wrap;html=1;" vertex="1" parent="1">
          <mxGeometry x="480" y="330" width="60" height="60" as="geometry" />
        </mxCell>
        <mxCell id="4ghWdcjFNyHcXNx8mhB--26" value="" style="endArrow=classic;html=1;rounded=0;exitX=1;exitY=0.5;exitDx=0;exitDy=0;entryX=0;entryY=0.5;entryDx=0;entryDy=0;" edge="1" parent="1" source="4ghWdcjFNyHcXNx8mhB--17" target="4ghWdcjFNyHcXNx8mhB--25">
          <mxGeometry width="50" height="50" relative="1" as="geometry">
            <mxPoint x="330" y="410" as="sourcePoint" />
            <mxPoint x="380" y="360" as="targetPoint" />
          </mxGeometry>
        </mxCell>
        <mxCell id="4ghWdcjFNyHcXNx8mhB--27" value="File to Hash" style="ellipse;whiteSpace=wrap;html=1;" vertex="1" parent="1">
          <mxGeometry x="390" y="410" width="80" height="30" as="geometry" />
        </mxCell>
        <mxCell id="4ghWdcjFNyHcXNx8mhB--29" value="Compare" style="triangle;whiteSpace=wrap;html=1;" vertex="1" parent="1">
          <mxGeometry x="560" y="273.75" width="60" height="82.5" as="geometry" />
        </mxCell>
        <mxCell id="4ghWdcjFNyHcXNx8mhB--31" value="" style="endArrow=classic;html=1;rounded=0;exitX=1;exitY=0.5;exitDx=0;exitDy=0;entryX=0;entryY=0.5;entryDx=0;entryDy=0;" edge="1" parent="1" source="4ghWdcjFNyHcXNx8mhB--24" target="4ghWdcjFNyHcXNx8mhB--29">
          <mxGeometry width="50" height="50" relative="1" as="geometry">
            <mxPoint x="330" y="410" as="sourcePoint" />
            <mxPoint x="380" y="360" as="targetPoint" />
          </mxGeometry>
        </mxCell>
        <mxCell id="4ghWdcjFNyHcXNx8mhB--32" value="" style="endArrow=classic;html=1;rounded=0;exitX=1;exitY=0.5;exitDx=0;exitDy=0;entryX=0;entryY=0.5;entryDx=0;entryDy=0;" edge="1" parent="1" source="4ghWdcjFNyHcXNx8mhB--25" target="4ghWdcjFNyHcXNx8mhB--29">
          <mxGeometry width="50" height="50" relative="1" as="geometry">
            <mxPoint x="550" y="290" as="sourcePoint" />
            <mxPoint x="570" y="325" as="targetPoint" />
          </mxGeometry>
        </mxCell>
        <mxCell id="4ghWdcjFNyHcXNx8mhB--33" value="Change detected in IHM" style="rounded=0;whiteSpace=wrap;html=1;" vertex="1" parent="1">
          <mxGeometry x="650" y="285" width="70" height="60" as="geometry" />
        </mxCell>
        <mxCell id="4ghWdcjFNyHcXNx8mhB--35" value="" style="endArrow=classic;html=1;rounded=0;entryX=0;entryY=0.5;entryDx=0;entryDy=0;exitX=1;exitY=0.5;exitDx=0;exitDy=0;" edge="1" parent="1" source="4ghWdcjFNyHcXNx8mhB--29" target="4ghWdcjFNyHcXNx8mhB--33">
          <mxGeometry width="50" height="50" relative="1" as="geometry">
            <mxPoint x="330" y="410" as="sourcePoint" />
            <mxPoint x="380" y="360" as="targetPoint" />
          </mxGeometry>
        </mxCell>
      </root>
    </mxGraphModel>
  </diagram>
</mxfile>
